<?xml version="1.0" encoding="utf-8"?>
<!-- Generator: Adobe Illustrator 17.0.0, SVG Export Plug-In . SVG Version: 6.00 Build 0)  -->
<!DOCTYPE svg PUBLIC "-//W3C//DTD SVG 1.1//EN" "http://www.w3.org/Graphics/SVG/1.1/DTD/svg11.dtd">
<svg version="1.1" id="Calque_1" xmlns="http://www.w3.org/2000/svg" xmlns:xlink="http://www.w3.org/1999/xlink" x="0px" y="0px"
	 width="320px" height="320px" viewBox="0 0 320 320" enable-background="new 0 0 320 320" xml:space="preserve">
<g>
	<linearGradient id="SVGID_1_" gradientUnits="userSpaceOnUse" x1="138.5296" y1="149.4214" x2="295.4461" y2="149.4214">
		<stop  offset="0" style="stop-color:#006834"/>
		<stop  offset="1" style="stop-color:#00C495"/>
	</linearGradient>
	<polygon fill="url(#SVGID_1_)" points="303.032,149.422 136.127,31.248 136.127,267.595 	"/>
	<g>
		<radialGradient id="SVGID_2_" cx="123.9185" cy="159.2341" r="88.3462" gradientUnits="userSpaceOnUse">
			<stop  offset="0.4734" style="stop-color:#404040"/>
			<stop  offset="0.5402" style="stop-color:#6D6D6D"/>
			<stop  offset="0.6169" style="stop-color:#999999"/>
			<stop  offset="0.6944" style="stop-color:#BEBEBE"/>
			<stop  offset="0.7716" style="stop-color:#DADADA"/>
			<stop  offset="0.8484" style="stop-color:#EFEFEF"/>
			<stop  offset="0.9247" style="stop-color:#FBFBFB"/>
			<stop  offset="1" style="stop-color:#FFFFFF"/>
		</radialGradient>
		<circle fill="url(#SVGID_2_)" cx="123.919" cy="159.234" r="88.346"/>
		<circle fill="#FFFFFF" cx="134.81" cy="148.342" r="76.97"/>
		<g>
			<path fill="#008A57" d="M113.646,174.94c-6.962,0-12.172-2.364-15.629-7.094c-3.457-4.73-5.188-11.044-5.188-18.943
				c0-7.898,1.731-14.212,5.188-18.942c3.457-4.728,8.667-7.094,15.629-7.094c6.963,0,12.172,2.366,15.629,7.094
				c3.457,4.73,5.184,11.044,5.184,18.942c0,7.9-1.727,14.214-5.184,18.943C125.818,172.576,120.609,174.94,113.646,174.94z
				 M106.228,136.767c-1.586,3.074-2.379,7.131-2.379,12.172s0.793,9.101,2.379,12.172c1.582,3.074,4.057,4.61,7.418,4.61
				c3.361,0,5.833-1.536,7.418-4.61c1.586-3.071,2.375-7.131,2.375-12.172s-0.789-9.098-2.375-12.172
				c-1.586-3.073-4.057-4.609-7.418-4.609C110.285,132.158,107.81,133.694,106.228,136.767z"/>
			<path fill="#008A57" d="M158.444,152.611v-8.785h10.805v8.785h5.688v9.725h-5.688v12.027h-10.805v-12.027h-20.239v-8.572
				l17.934-29.745h12.246l-17.07,28.592H158.444z"/>
		</g>
	</g>
</g>
<g>
	<g>
		<linearGradient id="SVGID_3_" gradientUnits="userSpaceOnUse" x1="-172.5891" y1="149.9585" x2="-16.9113" y2="149.9585">
			<stop  offset="0" style="stop-color:#007AFF"/>
			<stop  offset="1" style="stop-color:#1DC8FE"/>
		</linearGradient>
		<polygon fill="url(#SVGID_3_)" points="-9.385,149.959 -174.973,32.292 -174.973,267.625 		"/>
		<g>
			
				<radialGradient id="SVGID_4_" cx="-186.4543" cy="158.9112" r="87.4029" gradientTransform="matrix(1.0028 0 0 1.0065 -0.1059 -0.2071)" gradientUnits="userSpaceOnUse">
				<stop  offset="0.4734" style="stop-color:#404040"/>
				<stop  offset="0.5402" style="stop-color:#6D6D6D"/>
				<stop  offset="0.6169" style="stop-color:#999999"/>
				<stop  offset="0.6944" style="stop-color:#BEBEBE"/>
				<stop  offset="0.7716" style="stop-color:#DADADA"/>
				<stop  offset="0.8484" style="stop-color:#EFEFEF"/>
				<stop  offset="0.9247" style="stop-color:#FBFBFB"/>
				<stop  offset="1" style="stop-color:#FFFFFF"/>
			</radialGradient>
			<ellipse fill="url(#SVGID_4_)" cx="-187.085" cy="159.729" rx="87.649" ry="87.967"/>
			<ellipse fill="#FFFFFF" cx="-176.279" cy="148.884" rx="76.363" ry="76.64"/>
			<g>
				<path fill="#017DFF" d="M-197.385,175.368c-6.907,0-12.076-2.354-15.506-7.064c-3.43-4.709-5.143-10.996-5.143-18.862
					c0-7.864,1.713-14.151,5.143-18.86c3.43-4.708,8.598-7.063,15.506-7.063c6.908,0,12.076,2.356,15.506,7.063
					c3.43,4.71,5.146,10.996,5.146,18.86c0,7.866-1.717,14.153-5.146,18.862C-185.309,173.013-190.477,175.368-197.385,175.368z
					 M-204.744,137.359c-1.57,3.061-2.356,7.1-2.356,12.12s0.786,9.061,2.356,12.12c1.574,3.061,4.026,4.59,7.36,4.59
					c3.334,0,5.79-1.529,7.36-4.59c1.573-3.058,2.36-7.1,2.36-12.12s-0.786-9.059-2.36-12.12c-1.57-3.06-4.025-4.589-7.36-4.589
					C-200.719,132.769-203.171,134.299-204.744,137.359z"/>
				<path fill="#017DFF" d="M-170.229,134.203v-9.537h30.581v7.744l-10.219,11.69c4.003,0.67,7.098,2.356,9.289,5.056
					c2.191,2.701,3.287,5.822,3.287,9.358c0,5.259-1.772,9.384-5.323,12.371c-3.548,2.988-8.084,4.483-13.613,4.483
					c-5.525,0-11.124-1.959-16.789-5.881l4.573-8.891c4.713,3.347,8.929,5.019,12.646,5.019c2.239,0,4.084-0.55,5.54-1.649
					c1.452-1.099,2.177-2.69,2.177-4.77c0-2.079-0.835-3.728-2.5-4.948c-1.669-1.219-3.977-1.828-6.929-1.828
					c-1.573,0-3.79,0.454-6.646,1.361v-8.246l9.576-11.332H-170.229z"/>
			</g>
		</g>
	</g>
	<g>
		<linearGradient id="SVGID_5_" gradientUnits="userSpaceOnUse" x1="-172.5891" y1="148.884" x2="-16.9112" y2="148.884">
			<stop  offset="0" style="stop-color:#008200"/>
			<stop  offset="1" style="stop-color:#77C600"/>
		</linearGradient>
		<polygon opacity="0.9" fill="url(#SVGID_5_)" points="-9.385,148.884 -174.973,31.218 -174.973,266.55 		"/>
		<g>
			
				<radialGradient id="SVGID_6_" cx="-186.4543" cy="157.8438" r="87.4029" gradientTransform="matrix(1.0028 0 0 1.0065 -0.1059 -0.2071)" gradientUnits="userSpaceOnUse">
				<stop  offset="0.4734" style="stop-color:#404040"/>
				<stop  offset="0.5402" style="stop-color:#6D6D6D"/>
				<stop  offset="0.6169" style="stop-color:#999999"/>
				<stop  offset="0.6944" style="stop-color:#BEBEBE"/>
				<stop  offset="0.7716" style="stop-color:#DADADA"/>
				<stop  offset="0.8484" style="stop-color:#EFEFEF"/>
				<stop  offset="0.9247" style="stop-color:#FBFBFB"/>
				<stop  offset="1" style="stop-color:#FFFFFF"/>
			</radialGradient>
			<ellipse fill="url(#SVGID_6_)" cx="-187.085" cy="158.655" rx="87.649" ry="87.967"/>
			<ellipse fill="#FFFFFF" cx="-176.279" cy="147.81" rx="76.363" ry="76.639"/>
			<g>
				<path fill="#2D9817" d="M-197.563,174.293c-6.907,0-12.076-2.354-15.506-7.064c-3.43-4.709-5.145-10.996-5.145-18.862
					c0-7.864,1.715-14.151,5.145-18.86c3.43-4.708,8.598-7.063,15.506-7.063c6.908,0,12.076,2.356,15.506,7.063
					c3.43,4.71,5.145,10.996,5.145,18.86c0,7.866-1.715,14.153-5.145,18.862C-185.486,171.939-190.655,174.293-197.563,174.293z
					 M-204.922,136.284c-1.572,3.061-2.358,7.1-2.358,12.12s0.787,9.061,2.358,12.12c1.572,3.061,4.025,4.59,7.359,4.59
					c3.334,0,5.788-1.529,7.36-4.59c1.573-3.058,2.358-7.1,2.358-12.12s-0.785-9.059-2.358-12.12
					c-1.572-3.06-4.025-4.589-7.36-4.589C-200.897,131.695-203.35,133.224-204.922,136.284z"/>
				<path fill="#2D9817" d="M-139.612,123.591v9.681h-19.722v8.39c1.476-0.43,3.169-0.644,5.075-0.644
					c4.81,0,8.955,1.457,12.432,4.374c3.477,2.916,5.216,6.849,5.216,11.797c0,4.95-1.799,9.035-5.395,12.264
					c-3.597,3.226-8.039,4.841-13.326,4.841c-6.766,0-12.411-2.511-16.936-7.53l5.86-8.176c0.428,0.43,1,0.958,1.715,1.577
					c0.715,0.624,2.024,1.448,3.93,2.476c1.904,1.028,3.81,1.542,5.717,1.542c1.904,0,3.597-0.574,5.073-1.723
					c1.476-1.147,2.215-2.843,2.215-5.091c0-2.247-0.798-3.979-2.393-5.199c-1.597-1.219-3.656-1.83-6.181-1.83
					s-5.455,0.91-8.788,2.727l-4.645-5.021v-24.453H-139.612z"/>
			</g>
		</g>
	</g>
</g>
</svg>
