<?xml version="1.0" encoding="utf-8"?>
<!-- Generator: Adobe Illustrator 17.0.0, SVG Export Plug-In . SVG Version: 6.00 Build 0)  -->
<!DOCTYPE svg PUBLIC "-//W3C//DTD SVG 1.1//EN" "http://www.w3.org/Graphics/SVG/1.1/DTD/svg11.dtd">
<svg version="1.1" id="Calque_1" xmlns="http://www.w3.org/2000/svg" xmlns:xlink="http://www.w3.org/1999/xlink" x="0px" y="0px"
	 width="320px" height="320px" viewBox="0 0 320 320" enable-background="new 0 0 320 320" xml:space="preserve">
<g>
	<linearGradient id="SVGID_1_" gradientUnits="userSpaceOnUse" x1="135.6932" y1="158.4263" x2="278.778" y2="158.4263">
		<stop  offset="0" style="stop-color:#021559"/>
		<stop  offset="1" style="stop-color:#0953B8"/>
	</linearGradient>
	<polygon fill="url(#SVGID_1_)" points="285.696,158.427 133.502,50.669 133.502,266.184 	"/>
	<g>
		<radialGradient id="SVGID_2_" cx="122.3701" cy="167.3741" r="80.5588" gradientUnits="userSpaceOnUse">
			<stop  offset="0.4734" style="stop-color:#404040"/>
			<stop  offset="0.5402" style="stop-color:#6D6D6D"/>
			<stop  offset="0.6169" style="stop-color:#999999"/>
			<stop  offset="0.6944" style="stop-color:#BEBEBE"/>
			<stop  offset="0.7716" style="stop-color:#DADADA"/>
			<stop  offset="0.8484" style="stop-color:#EFEFEF"/>
			<stop  offset="0.9247" style="stop-color:#FBFBFB"/>
			<stop  offset="1" style="stop-color:#FFFFFF"/>
		</radialGradient>
		<circle fill="url(#SVGID_2_)" cx="122.37" cy="167.374" r="80.559"/>
		<circle fill="#FFFFFF" cx="132.302" cy="157.442" r="70.186"/>
		<g>
			<path fill="#0847A6" d="M119.076,181.696c-6.348,0-11.099-2.156-14.251-6.469c-3.152-4.313-4.729-10.07-4.729-17.274
				c0-7.202,1.576-12.959,4.729-17.272c3.152-4.311,7.903-6.468,14.251-6.468c6.349,0,11.099,2.157,14.252,6.468
				c3.152,4.313,4.729,10.07,4.729,17.272c0,7.203-1.576,12.961-4.729,17.274C130.175,179.54,125.425,181.696,119.076,181.696z
				 M112.312,146.888c-1.444,2.803-2.168,6.502-2.168,11.099s0.723,8.298,2.168,11.099c1.444,2.803,3.7,4.203,6.764,4.203
				c3.065,0,5.32-1.401,6.764-4.203c1.446-2.801,2.168-6.502,2.168-11.099s-0.721-8.296-2.168-11.099
				c-1.444-2.802-3.7-4.203-6.764-4.203C116.011,142.685,113.756,144.085,112.312,146.888z"/>
			<path fill="#0847A6" d="M141.143,135.263h18.586v45.907h-9.85v-37.173h-8.736V135.263z"/>
		</g>
	</g>
</g>
</svg>
