<?xml version="1.0" encoding="utf-8"?>
<!-- Generator: Adobe Illustrator 17.0.0, SVG Export Plug-In . SVG Version: 6.00 Build 0)  -->
<!DOCTYPE svg PUBLIC "-//W3C//DTD SVG 1.1//EN" "http://www.w3.org/Graphics/SVG/1.1/DTD/svg11.dtd">
<svg version="1.1" id="Calque_1" xmlns="http://www.w3.org/2000/svg" xmlns:xlink="http://www.w3.org/1999/xlink" x="0px" y="0px"
	 width="320px" height="320px" viewBox="0 0 320 320" enable-background="new 0 0 320 320" xml:space="preserve">
<g>
	<linearGradient id="SVGID_1_" gradientUnits="userSpaceOnUse" x1="131.3216" y1="161.5771" x2="286.9994" y2="161.5771">
		<stop  offset="0" style="stop-color:#007AFF"/>
		<stop  offset="1" style="stop-color:#1DC8FE"/>
	</linearGradient>
	<polygon fill="url(#SVGID_1_)" points="294.526,161.577 128.938,43.911 128.938,279.243 	"/>
	<g>
		
			<radialGradient id="SVGID_2_" cx="116.6038" cy="170.4553" r="87.4029" gradientTransform="matrix(1.0028 0 0 1.0065 -0.1059 -0.2071)" gradientUnits="userSpaceOnUse">
			<stop  offset="0.4734" style="stop-color:#404040"/>
			<stop  offset="0.5402" style="stop-color:#6D6D6D"/>
			<stop  offset="0.6169" style="stop-color:#999999"/>
			<stop  offset="0.6944" style="stop-color:#BEBEBE"/>
			<stop  offset="0.7716" style="stop-color:#DADADA"/>
			<stop  offset="0.8484" style="stop-color:#EFEFEF"/>
			<stop  offset="0.9247" style="stop-color:#FBFBFB"/>
			<stop  offset="1" style="stop-color:#FFFFFF"/>
		</radialGradient>
		<ellipse fill="url(#SVGID_2_)" cx="116.826" cy="171.348" rx="87.649" ry="87.967"/>
		<ellipse fill="#FFFFFF" cx="127.632" cy="160.502" rx="76.363" ry="76.64"/>
		<g>
			<path fill="#017DFF" d="M106.526,186.986c-6.907,0-12.076-2.354-15.506-7.064c-3.43-4.709-5.143-10.996-5.143-18.862
				c0-7.864,1.713-14.151,5.143-18.86c3.43-4.708,8.598-7.063,15.506-7.063c6.908,0,12.076,2.356,15.506,7.063
				c3.43,4.71,5.146,10.996,5.146,18.86c0,7.866-1.717,14.153-5.146,18.862C118.602,184.632,113.434,186.986,106.526,186.986z
				 M99.166,148.977c-1.57,3.061-2.356,7.1-2.356,12.12s0.786,9.061,2.356,12.12c1.573,3.061,4.026,4.59,7.36,4.59
				c3.334,0,5.79-1.529,7.36-4.59c1.573-3.058,2.36-7.1,2.36-12.12s-0.786-9.059-2.36-12.12c-1.57-3.06-4.025-4.589-7.36-4.589
				C103.192,144.388,100.74,145.917,99.166,148.977z"/>
			<path fill="#017DFF" d="M133.682,145.821v-9.537h30.581v7.744l-10.219,11.69c4.003,0.67,7.098,2.356,9.289,5.056
				c2.191,2.701,3.287,5.822,3.287,9.358c0,5.259-1.772,9.384-5.323,12.371c-3.548,2.988-8.084,4.483-13.613,4.483
				c-5.525,0-11.124-1.959-16.789-5.881l4.573-8.891c4.713,3.347,8.929,5.019,12.646,5.019c2.239,0,4.084-0.55,5.54-1.649
				c1.452-1.099,2.177-2.69,2.177-4.77c0-2.079-0.835-3.728-2.5-4.948c-1.669-1.219-3.977-1.828-6.929-1.828
				c-1.574,0-3.79,0.454-6.646,1.361v-8.246l9.576-11.332H133.682z"/>
		</g>
	</g>
</g>
</svg>
