<?xml version="1.0" encoding="utf-8"?>
<!-- Generator: Adobe Illustrator 17.0.0, SVG Export Plug-In . SVG Version: 6.00 Build 0)  -->
<!DOCTYPE svg PUBLIC "-//W3C//DTD SVG 1.1//EN" "http://www.w3.org/Graphics/SVG/1.1/DTD/svg11.dtd">
<svg version="1.1" id="Calque_1" xmlns="http://www.w3.org/2000/svg" xmlns:xlink="http://www.w3.org/1999/xlink" x="0px" y="0px"
	 width="320px" height="320px" viewBox="0 0 320 320" enable-background="new 0 0 320 320" xml:space="preserve">
<g>
	<linearGradient id="SVGID_1_" gradientUnits="userSpaceOnUse" x1="137.8818" y1="160" x2="283.1414" y2="160">
		<stop  offset="0" style="stop-color:#575757"/>
		<stop  offset="1" style="stop-color:#A6A6A6"/>
	</linearGradient>
	<polygon fill="url(#SVGID_1_)" points="290.164,160 135.658,50.605 135.658,269.395 	"/>
	<g>
		<radialGradient id="SVGID_2_" cx="124.3566" cy="169.0838" r="81.783" gradientUnits="userSpaceOnUse">
			<stop  offset="0.4734" style="stop-color:#404040"/>
			<stop  offset="0.5402" style="stop-color:#6D6D6D"/>
			<stop  offset="0.6169" style="stop-color:#999999"/>
			<stop  offset="0.6944" style="stop-color:#BEBEBE"/>
			<stop  offset="0.7716" style="stop-color:#DADADA"/>
			<stop  offset="0.8484" style="stop-color:#EFEFEF"/>
			<stop  offset="0.9247" style="stop-color:#FBFBFB"/>
			<stop  offset="1" style="stop-color:#FFFFFF"/>
		</radialGradient>
		<circle fill="url(#SVGID_2_)" cx="124.357" cy="169.084" r="81.783"/>
		<circle fill="#FFFFFF" cx="134.439" cy="159.001" r="71.252"/>
		<g>
			<path fill="#8B8B8B" d="M114.279,183.623c-6.445,0-11.268-2.189-14.468-6.567c-3.2-4.378-4.8-10.223-4.8-17.536
				c0-7.311,1.6-13.156,4.8-17.535c3.201-4.377,8.023-6.567,14.468-6.567c6.445,0,11.268,2.19,14.468,6.567
				c3.201,4.379,4.8,10.223,4.8,17.535c0,7.313-1.6,13.158-4.8,17.536C125.547,181.434,120.724,183.623,114.279,183.623z
				 M107.412,148.286c-1.466,2.845-2.201,6.601-2.201,11.268c0,4.667,0.734,8.425,2.201,11.268c1.466,2.845,3.756,4.267,6.867,4.267
				c3.111,0,5.401-1.422,6.867-4.267c1.468-2.843,2.2-6.601,2.2-11.268c0-4.667-0.732-8.422-2.2-11.268
				c-1.466-2.845-3.756-4.267-6.867-4.267C111.168,144.019,108.879,145.441,107.412,148.286z"/>
			<path fill="#8B8B8B" d="M158.051,154.652c1.177-1.665,1.766-3.277,1.766-4.833c0-1.556-0.511-2.856-1.533-3.9
				c-1.024-1.045-2.334-1.568-3.934-1.568c-2.933,0-5.711,2.091-8.334,6.267l-8.335-4.932c2.178-3.379,4.567-5.934,7.167-7.668
				c2.602-1.734,5.912-2.6,9.935-2.6c4.022,0,7.557,1.277,10.601,3.833c3.044,2.557,4.567,6.033,4.567,10.434
				c0,2.401-0.611,4.701-1.833,6.901c-1.223,2.201-3.478,5.011-6.768,8.435l-8.4,8.733h18.403v9.335h-32.87v-7.735l13.667-14.002
				C154.905,158.554,156.872,156.319,158.051,154.652z"/>
		</g>
	</g>
</g>
</svg>
